<?xml version="1.0" encoding="UTF-8"?>
<!DOCTYPE svg PUBLIC "-//W3C//DTD SVG 1.1//EN" "http://www.w3.org/Graphics/SVG/1.1/DTD/svg11.dtd">
<svg width="300pt" height="65pt" viewBox="0 0 300 65" version="1.1" xmlns="http://www.w3.org/2000/svg">
<g id="#ffffffff">
</g>
<g id="#1e93d1ff">
<path fill="#1e93d1" opacity="1.00" d=" M 21.22 12.14 C 24.08 11.74 27.03 11.76 29.87 12.31 C 30.97 16.73 30.20 21.42 30.32 25.94 C 26.95 24.69 21.65 23.88 20.12 28.14 C 20.00 24.08 19.99 20.01 20.05 15.94 C 20.29 14.72 19.79 12.74 21.22 12.14 Z"/>
</g>
<g id="#000000ff">
<path fill="#000000" opacity="1.00" d=" M 283.38 13.63 C 284.73 13.32 286.12 14.08 287.32 14.65 C 289.02 16.05 287.76 18.36 287.16 20.00 C 288.38 21.34 289.67 22.93 289.07 24.90 C 288.62 28.11 284.83 29.16 282.16 28.10 C 281.70 29.56 282.47 32.82 279.96 32.35 C 280.12 26.95 279.80 21.52 280.17 16.12 C 280.37 14.53 282.09 14.04 283.38 13.63 M 282.11 14.96 C 281.91 19.00 281.85 23.06 282.15 27.10 C 282.63 27.23 283.59 27.50 284.07 27.64 C 287.52 27.93 287.61 23.54 286.45 21.35 C 285.69 20.07 282.92 21.47 283.33 19.46 C 283.99 19.38 285.32 19.23 285.98 19.16 C 286.32 17.75 286.31 16.35 285.95 14.95 C 284.66 14.39 283.38 14.39 282.11 14.96 Z"/>
<path fill="#000000" opacity="1.00" d=" M 66.43 20.61 C 68.27 20.14 70.19 20.25 72.07 20.28 C 75.97 20.06 78.79 23.81 82.76 23.29 C 81.71 24.94 80.68 26.71 79.09 27.90 C 75.68 23.32 67.94 22.66 64.21 27.16 C 62.35 29.68 62.53 33.33 64.16 35.92 C 66.92 38.98 71.56 39.30 75.31 38.15 C 76.81 37.50 77.80 36.12 79.05 35.12 C 80.78 36.11 81.64 38.09 82.74 39.68 C 79.48 39.10 77.09 41.90 74.00 42.25 C 69.51 42.76 64.12 42.77 60.87 39.11 C 57.50 35.89 57.22 30.67 58.65 26.47 C 60.35 23.58 63.25 21.56 66.43 20.61 Z"/>
<path fill="#000000" opacity="1.00" d=" M 147.26 23.58 L 147.90 23.25 C 147.79 25.08 147.75 26.91 147.74 28.75 C 143.88 27.55 139.79 28.04 135.82 28.04 C 135.81 28.83 135.81 30.42 135.80 31.21 C 138.50 31.54 141.55 31.97 143.88 30.23 C 143.75 32.05 143.76 33.89 143.90 35.71 C 141.25 34.59 138.02 34.08 135.35 35.35 C 135.29 36.44 135.27 37.54 135.30 38.64 C 139.74 38.84 144.19 38.79 148.61 38.38 C 148.59 39.80 148.59 41.21 148.61 42.62 C 142.70 41.93 136.75 42.56 130.84 42.16 C 131.44 36.46 131.65 30.64 130.77 24.96 L 131.39 24.39 C 136.22 24.26 141.08 24.72 145.90 24.26 C 146.24 24.09 146.92 23.75 147.26 23.58 Z"/>
<path fill="#000000" opacity="1.00" d=" M 90.44 24.62 C 94.13 23.89 98.65 23.42 101.68 26.14 C 106.25 29.17 106.55 36.84 102.20 40.19 C 99.85 42.65 96.12 42.53 92.99 42.41 C 90.04 42.35 87.43 40.63 85.56 38.46 C 84.44 36.18 84.37 33.50 84.69 31.03 C 85.17 27.98 87.73 25.77 90.44 24.62 M 92.21 28.16 C 88.50 29.50 87.95 34.82 90.59 37.42 C 92.38 39.22 95.31 39.34 97.57 38.50 C 100.54 37.10 101.33 33.04 99.79 30.32 C 98.66 27.40 94.74 27.29 92.21 28.16 Z"/>
<path fill="#000000" opacity="1.00" d=" M 107.29 24.33 C 112.21 24.74 117.24 23.87 122.10 24.86 C 128.58 26.55 129.62 35.91 125.16 40.18 C 121.99 42.65 117.77 42.28 113.99 42.31 C 112.06 42.23 110.05 42.54 108.18 41.95 C 108.54 37.62 108.43 33.28 108.44 28.94 C 108.57 27.30 107.82 25.83 107.29 24.33 M 113.04 28.05 C 112.95 31.62 112.87 35.21 113.17 38.78 C 115.65 38.78 118.14 38.83 120.60 38.48 C 123.46 36.52 124.27 31.72 121.66 29.25 C 119.20 27.39 115.90 28.04 113.04 28.05 Z"/>
</g>
<g id="#fbd366ff">
<path fill="#fbd366" opacity="1.00" d=" M 5.37 21.24 C 8.12 18.87 12.91 18.88 15.70 21.18 C 16.12 27.72 15.67 34.28 16.01 40.83 L 15.14 41.05 C 15.13 38.50 16.17 34.89 13.66 33.20 C 11.23 32.65 8.67 32.73 6.23 33.19 C 5.54 35.72 5.67 38.36 5.88 40.95 L 4.95 40.98 C 5.46 34.40 4.92 27.81 5.37 21.24 Z"/>
</g>
<g id="#b91f24ff">
<path fill="#b91f24" opacity="1.00" d=" M 35.28 24.35 C 38.45 24.06 41.65 24.04 44.82 24.33 C 45.84 27.45 45.22 30.79 45.38 34.00 C 45.23 36.62 45.81 39.38 44.92 41.90 C 41.84 42.61 38.31 42.84 35.30 41.78 C 34.42 39.63 34.75 37.26 34.67 35.00 C 34.78 31.45 34.36 27.82 35.28 24.35 Z"/>
</g>
<g id="#445f9dff">
<path fill="#445f9d" opacity="1.00" d=" M 151.35 24.29 C 156.90 24.36 162.47 24.58 168.01 24.09 C 168.37 25.43 168.43 26.78 168.18 28.16 C 164.12 28.11 160.06 27.82 156.00 28.05 C 156.01 28.82 156.04 30.35 156.06 31.12 C 158.68 31.71 161.36 31.24 164.00 31.10 C 164.38 32.40 164.42 33.72 164.14 35.06 C 161.45 34.88 158.73 34.35 156.05 34.92 C 155.90 37.35 156.18 39.77 156.18 42.19 C 154.54 42.37 152.88 42.39 151.25 42.10 C 152.04 36.20 151.78 30.20 151.35 24.29 Z"/>
<path fill="#445f9d" opacity="1.00" d=" M 176.31 24.49 C 180.29 23.63 184.98 23.93 187.94 27.07 C 192.21 31.35 190.71 39.90 184.69 41.77 C 180.42 42.89 174.77 43.10 171.68 39.36 C 169.47 37.19 169.35 33.82 169.78 30.94 C 170.12 27.61 173.16 25.11 176.31 24.49 M 177.27 28.21 C 174.03 29.82 172.88 34.78 175.65 37.35 C 178.95 40.93 186.50 38.23 185.76 33.08 C 185.92 28.89 180.75 26.55 177.27 28.21 Z"/>
<path fill="#445f9d" opacity="1.00" d=" M 193.36 24.28 C 197.55 24.43 201.75 24.34 205.95 24.36 C 207.97 24.30 209.90 25.31 211.31 26.70 C 211.89 28.49 211.96 30.51 211.32 32.29 C 210.50 33.55 209.03 34.15 207.91 35.10 C 208.20 37.93 211.43 39.40 212.18 42.11 C 210.16 42.33 208.06 42.60 206.08 42.02 C 205.34 39.35 203.87 36.91 201.81 35.07 C 200.61 34.98 199.42 35.02 198.23 35.18 C 198.09 37.51 198.44 39.83 198.76 42.13 C 196.93 42.40 195.06 42.40 193.24 42.13 C 194.06 36.22 193.77 30.21 193.36 24.28 M 198.20 28.25 C 198.17 29.40 198.21 30.54 198.31 31.68 C 200.74 31.69 203.17 31.73 205.59 31.57 C 207.19 31.23 206.93 29.49 206.87 28.27 C 204.00 27.87 201.06 27.83 198.20 28.25 Z"/>
<path fill="#445f9d" opacity="1.00" d=" M 220.35 24.51 C 225.01 23.30 229.86 24.42 233.75 27.16 C 233.77 28.58 232.58 29.63 231.87 30.76 C 229.37 28.40 225.71 26.78 222.27 28.16 C 218.67 29.18 217.22 34.45 220.05 36.99 C 221.99 39.18 225.21 39.27 227.88 38.71 C 229.62 38.49 230.37 36.60 231.95 36.08 C 232.66 37.23 234.84 38.94 233.29 40.24 C 228.67 42.24 223.27 43.43 218.45 41.46 C 214.28 39.14 213.02 33.71 214.54 29.41 C 215.81 27.16 217.85 25.27 220.35 24.51 Z"/>
<path fill="#445f9d" opacity="1.00" d=" M 236.24 24.30 C 242.16 24.35 248.10 24.58 254.00 24.10 C 254.38 25.42 254.44 26.77 254.18 28.14 C 250.12 28.13 246.06 27.81 242.00 28.06 C 242.01 28.82 242.04 30.36 242.06 31.12 C 244.68 31.70 247.37 31.24 250.02 31.08 C 250.38 32.40 250.42 33.73 250.15 35.09 C 247.45 34.88 244.71 34.32 242.02 34.93 C 242.02 35.75 242.04 37.37 242.05 38.19 C 246.23 38.77 250.47 38.35 254.67 38.28 C 254.77 39.72 254.82 41.16 254.83 42.61 C 248.97 41.78 242.98 42.94 237.18 41.94 C 237.09 36.08 238.40 29.90 236.24 24.30 Z"/>
<path fill="#445f9d" opacity="1.00" d=" M 261.34 24.50 C 265.59 23.35 269.91 24.69 273.88 26.20 C 273.64 27.50 273.42 29.32 272.00 29.86 C 269.00 27.75 264.90 26.67 261.50 28.50 C 261.45 28.84 261.36 29.53 261.31 29.87 C 264.54 32.14 269.06 30.30 272.32 32.59 C 275.72 34.77 274.82 40.87 270.80 41.84 C 266.29 42.97 261.43 42.50 257.10 40.86 C 257.06 39.53 257.59 38.30 258.17 37.13 C 261.77 38.55 266.51 40.71 269.97 37.81 C 269.80 37.28 269.47 36.21 269.30 35.67 C 266.02 35.01 262.52 35.76 259.38 34.45 C 256.83 33.16 256.63 29.79 257.46 27.39 C 258.23 25.92 259.83 25.04 261.34 24.50 Z"/>
</g>
<g id="#1e85c8ff">
<path fill="#1e85c8" opacity="1.00" d=" M 20.12 28.14 C 21.65 23.88 26.95 24.69 30.32 25.94 C 30.27 31.29 30.81 36.71 30.02 42.01 C 26.89 42.49 23.40 42.96 20.42 41.68 C 19.55 37.25 20.15 32.64 20.12 28.14 Z"/>
</g>
<g id="#fac942ff">
<path fill="#fac942" opacity="1.00" d=" M 6.23 33.19 C 8.67 32.73 11.23 32.65 13.66 33.20 C 16.17 34.89 15.13 38.50 15.14 41.05 L 14.98 42.04 C 12.03 42.50 8.96 42.65 6.04 41.95 L 5.88 40.95 C 5.67 38.36 5.54 35.72 6.23 33.19 Z"/>
</g>
</svg>